
<svg xmlns="http://www.w3.org/2000/svg" width="820" height="180">
  <text x="20" y="20" font-family="Arial" font-size="16">deque 내부: 블록 기반 메모리 모델</text>
  <rect x="80" y="50" width="80" height="24" fill="#f5f5f5" stroke="#9e9e9e"/><rect x="170" y="50" width="80" height="24" fill="#f5f5f5" stroke="#9e9e9e"/><rect x="260" y="50" width="80" height="24" fill="#f5f5f5" stroke="#9e9e9e"/><rect x="350" y="50" width="80" height="24" fill="#f5f5f5" stroke="#9e9e9e"/><rect x="440" y="50" width="80" height="24" fill="#f5f5f5" stroke="#9e9e9e"/><rect x="530" y="50" width="80" height="24" fill="#f5f5f5" stroke="#9e9e9e"/><rect x="80" y="78" width="80" height="24" fill="#f5f5f5" stroke="#9e9e9e"/><rect x="170" y="78" width="80" height="24" fill="#f5f5f5" stroke="#9e9e9e"/><rect x="260" y="78" width="80" height="24" fill="#f5f5f5" stroke="#9e9e9e"/><rect x="350" y="78" width="80" height="24" fill="#f5f5f5" stroke="#9e9e9e"/><rect x="440" y="78" width="80" height="24" fill="#f5f5f5" stroke="#9e9e9e"/><rect x="530" y="78" width="80" height="24" fill="#f5f5f5" stroke="#9e9e9e"/><rect x="80" y="106" width="80" height="24" fill="#f5f5f5" stroke="#9e9e9e"/><rect x="170" y="106" width="80" height="24" fill="#f5f5f5" stroke="#9e9e9e"/><rect x="260" y="106" width="80" height="24" fill="#f5f5f5" stroke="#9e9e9e"/><rect x="350" y="106" width="80" height="24" fill="#f5f5f5" stroke="#9e9e9e"/><rect x="440" y="106" width="80" height="24" fill="#f5f5f5" stroke="#9e9e9e"/><rect x="530" y="106" width="80" height="24" fill="#f5f5f5" stroke="#9e9e9e"/>
  <text x="410" y="170" text-anchor="middle" font-family="Arial" font-size="12">
    여러 개의 고정 크기 블록을 연결해 확장. 재할당 시 전체 복사 비용을 줄임.
  </text>
</svg>
