
<svg xmlns="http://www.w3.org/2000/svg" width="780" height="190">
  <text x="20" y="24" font-family="Arial" font-size="14">시퀀스 컨테이너의 반복자 이동</text>
  <rect x="80" y="70" width="560" height="50" fill="none" stroke="#90a4ae"/>
  <rect x="100" y="75" width="50" height="40" fill="#e3f2fd" stroke="#1e88e5"/>
<text x="125" y="100" text-anchor="middle" font-family="Arial" font-size="12">0</text><rect x="170" y="75" width="50" height="40" fill="#e3f2fd" stroke="#1e88e5"/>
<text x="195" y="100" text-anchor="middle" font-family="Arial" font-size="12">1</text><rect x="240" y="75" width="50" height="40" fill="#e3f2fd" stroke="#1e88e5"/>
<text x="265" y="100" text-anchor="middle" font-family="Arial" font-size="12">2</text><rect x="310" y="75" width="50" height="40" fill="#e3f2fd" stroke="#1e88e5"/>
<text x="335" y="100" text-anchor="middle" font-family="Arial" font-size="12">3</text><rect x="380" y="75" width="50" height="40" fill="#e3f2fd" stroke="#1e88e5"/>
<text x="405" y="100" text-anchor="middle" font-family="Arial" font-size="12">4</text><rect x="450" y="75" width="50" height="40" fill="#e3f2fd" stroke="#1e88e5"/>
<text x="475" y="100" text-anchor="middle" font-family="Arial" font-size="12">5</text><rect x="520" y="75" width="50" height="40" fill="#e3f2fd" stroke="#1e88e5"/>
<text x="545" y="100" text-anchor="middle" font-family="Arial" font-size="12">6</text><rect x="590" y="75" width="50" height="40" fill="#e3f2fd" stroke="#1e88e5"/>
<text x="615" y="100" text-anchor="middle" font-family="Arial" font-size="12">7</text>
  <text x="80" y="60" font-family="Arial" font-size="12">begin()</text>
  <text x="640" y="60" font-family="Arial" font-size="12">end()</text>
  <circle cx="110" cy="95" r="10" fill="#1e88e5"/>
  <text x="110" y="125" text-anchor="middle" font-family="Arial" font-size="12">pos</text>
  <defs>
    <marker id="arr" markerWidth="10" markerHeight="10" refX="10" refY="3" orient="auto">
      <path d="M0,0 L10,3 L0,6 Z" fill="#1e88e5"/>
    </marker>
  </defs>
  <line x1="110" y1="140" x2="610" y2="140" stroke="#1e88e5" stroke-width="2" marker-end="url(#arr)"/>
  <text x="360" y="160" text-anchor="middle" font-family="Arial" font-size="12">++로 전진</text>
</svg>
