
<svg xmlns="http://www.w3.org/2000/svg" width="820" height="160">
  <defs>
    <marker id="arr" markerWidth="10" markerHeight="10" refX="10" refY="3" orient="auto">
      <path d="M0,0 L10,3 L0,6 Z" fill="#0277bd"/>
    </marker>
  </defs>
  <text x="20" y="24" font-family="Arial" font-size="16">queue: FIFO (First In, First Out)</text>
  <rect x="120" y="70" width="80" height="40" fill="#e1f5fe" stroke="#0277bd"/><text x="160" y="95" text-anchor="middle" font-family="Arial" font-size="14">1</text><rect x="210" y="70" width="80" height="40" fill="#e1f5fe" stroke="#0277bd"/><text x="250" y="95" text-anchor="middle" font-family="Arial" font-size="14">2</text><rect x="300" y="70" width="80" height="40" fill="#e1f5fe" stroke="#0277bd"/><text x="340" y="95" text-anchor="middle" font-family="Arial" font-size="14">3</text><rect x="390" y="70" width="80" height="40" fill="#e1f5fe" stroke="#0277bd"/><text x="430" y="95" text-anchor="middle" font-family="Arial" font-size="14">4</text><rect x="480" y="70" width="80" height="40" fill="#e1f5fe" stroke="#0277bd"/><text x="520" y="95" text-anchor="middle" font-family="Arial" font-size="14">5</text><rect x="570" y="70" width="80" height="40" fill="#e1f5fe" stroke="#0277bd"/><text x="610" y="95" text-anchor="middle" font-family="Arial" font-size="14">6</text>
  <text x="120" y="130" font-family="Arial" font-size="12">pop()</text>
  <line x1="120" y1="110" x2="120" y2="75" stroke="#0277bd" stroke-width="2" marker-end="url(#arr)"/>
  <text x="700" y="130" font-family="Arial" font-size="12" text-anchor="middle">push()</text>
  <line x1="700" y1="110" x2="700" y2="75" stroke="#0277bd" stroke-width="2" marker-end="url(#arr)"/>
  <text x="120" y="55" font-family="Arial" font-size="12">front()</text>
  <text x="700" y="55" font-family="Arial" font-size="12" text-anchor="middle">back()</text>
</svg>
